<?xml version="1.0" encoding="UTF-8"?>
<svg id="Layer_1" data-name="Layer 1" xmlns="http://www.w3.org/2000/svg" viewBox="0 0 343.88 185.29">
  <defs>
    <style>
      .cls-1 {
        fill: #e6e7e8;
      }

      .cls-2 {
        fill: #be3526;
        font-family: 13Misa, 13_Misa;
        font-size: 95.59px;
      }

      .cls-3 {
        fill: #231f20;
      }
    </style>
  </defs>
  <g>
    <circle class="cls-1" cx="106" cy="95.3" r="83.33"/>
    <path class="cls-3" d="m196.22,95.3c-1.99,61.76-66.06,100.61-122.3,77.44-1.89-.8-3.78-1.62-5.61-2.57-.93-.65-1.59-.19-2.65.58-4.21,3.61-7.79,8.3-12.06,11.92-2.1,1.87-3.62,2.67-4.61,2.6-.49-.03-.81-.36-1.19-.56-6.34-3.87-12.21-8.49-17.55-13.67C-23.42,118.5-2.61,28.4,68.54,4.89,95.49-3.99,125.51-.64,149.58,13.77c0,0,4.01,2.14,4.01,2.14,26.99,16.42,43.82,47.94,42.62,79.39h0Zm-13.77,0c-.84-27.97-17.11-52.37-41.47-65.47-10.86-5.1-23.24-7.16-34.98-6.11-36.38,3-63.61,35.62-60.69,71.58,1.37,19.99,11.72,38.7,28.01,50.27.84.44.57,1.09.36,2.22-.17.7-.41,1.44-.64,2.16-1.08,3.13-2.29,6.32-3.34,9.45-.74,2.2-1.73,5.38-1.93,7.44-.09,1.3-.05,2.06.99,2.45,1.8.94,3.66,1.77,5.53,2.57,10,4.21,20.9,6.22,31.71,5.97,43.69-.66,78.49-39.44,76.45-82.53h0Z"/>
  </g>
  <text class="cls-2" transform="translate(30.81 115.92) scale(.79 1)"><tspan x="0" y="0">AI</tspan></text>
  <text/>
  <text/>
</svg>