<svg version="1.1" id="Layer_1" xmlns="http://www.w3.org/2000/svg" xmlns:xlink="http://www.w3.org/1999/xlink" x="0px" y="0px"
	 viewBox="0 0 12.1 8.1" style="enable-background:new 0 0 12.1 8.1;" xml:space="preserve">
<style type="text/css">
	.st0{fill:#E6E7E8;}
</style>
<g>
	<circle class="st0" cx="-124.7" cy="-103" r="83.3"/>
	<path d="M-34.5-103c-2,61.8-66.1,100.6-122.3,77.4c-1.9-0.8-3.8-1.6-5.6-2.6c-0.9-0.7-1.6-0.2-2.6,0.6c-4.2,3.6-7.8,8.3-12.1,11.9
		c-2.1,1.9-3.6,2.7-4.6,2.6c-0.5,0-0.8-0.4-1.2-0.6c-6.3-3.9-12.2-8.5-17.6-13.7c-53.7-52.6-32.9-142.7,38.3-166.2
		c26.9-8.9,57-5.5,81,8.9c0,0,4,2.1,4,2.1C-50.2-166-33.3-134.5-34.5-103L-34.5-103z M-48.3-103c-0.8-28-17.1-52.4-41.5-65.5
		c-10.9-5.1-23.2-7.2-35-6.1c-36.4,3-63.6,35.6-60.7,71.6c1.4,20,11.7,38.7,28,50.3c0.8,0.4,0.6,1.1,0.4,2.2
		c-0.2,0.7-0.4,1.4-0.6,2.2c-1.1,3.1-2.3,6.3-3.3,9.5c-0.7,2.2-1.7,5.4-1.9,7.4c-0.1,1.3-0.1,2.1,1,2.4c1.8,0.9,3.7,1.8,5.5,2.6
		c10,4.2,20.9,6.2,31.7,6C-81.1-21.2-46.3-59.9-48.3-103L-48.3-103z"/>
</g>
<text transform="matrix(0.7937 0 0 1 -199.9379 -82.4144)" style="fill:#BE3526; font-family:'13Misa'; font-size:95.5937px;">AI</text>
<rect x="100" y="-54.5" style="fill:none;" width="13.1" height="6.1"/>
<rect x="-106.1" y="-33.3" style="fill:none;" width="6.1" height="3"/>
</svg>
